<svg width="61" height="62" viewBox="0 0 61 62" fill="none" xmlns="http://www.w3.org/2000/svg">
<circle cx="30.2444" cy="31.0249" r="30.2444" fill="black"/>
<path fill-rule="evenodd" clip-rule="evenodd" d="M30.2441 29.1346C31.7481 29.1346 33.1905 28.5372 34.254 27.4737C35.3175 26.4102 35.9149 24.9678 35.9149 23.4638C35.9149 21.9598 35.3175 20.5174 34.254 19.4539C33.1905 18.3904 31.7481 17.793 30.2441 17.793C28.7401 17.793 27.2977 18.3904 26.2342 19.4539C25.1708 20.5174 24.5733 21.9598 24.5733 23.4638C24.5733 24.9678 25.1708 26.4102 26.2342 27.4737C27.2977 28.5372 28.7401 29.1346 30.2441 29.1346ZM17.0122 46.1471C17.0122 44.4094 17.3545 42.6888 18.0194 41.0834C18.6844 39.4781 19.659 38.0194 20.8877 36.7907C22.1164 35.562 23.5751 34.5873 25.1805 33.9224C26.7859 33.2574 28.5065 32.9152 30.2441 32.9152C31.9818 32.9152 33.7024 33.2574 35.3078 33.9224C36.9131 34.5873 38.3718 35.562 39.6005 36.7907C40.8292 38.0194 41.8039 39.4781 42.4688 41.0834C43.1338 42.6888 43.476 44.4094 43.476 46.1471H17.0122Z" fill="white"/>
</svg>
