<svg width="190" height="190" viewBox="0 0 190 190" fill="none" xmlns="http://www.w3.org/2000/svg">
<circle cx="94.5137" cy="94.5137" r="94.5137" fill="black"/>
<path fill-rule="evenodd" clip-rule="evenodd" d="M112.623 38.2088C112.143 37.2488 111.465 36.4018 110.634 35.7241C109.802 35.0464 108.835 34.5535 107.798 34.2781C106.761 34.0028 105.677 33.9513 104.619 34.1271C103.56 34.3029 102.551 34.702 101.659 35.2978C99.0505 37.0369 97.0166 39.5169 95.4439 41.9516C93.8258 44.4467 92.3968 47.3426 91.1341 50.3898C88.6087 56.4689 86.4916 63.7578 84.7828 71.0618C82.7162 79.9876 81.1686 89.0256 80.1478 98.1305C77.0714 96.1472 74.5996 93.3563 73.0026 90.0628C70.5225 84.9213 69.9933 78.4641 69.9933 69.9957C69.9929 68.5005 69.5493 67.0389 68.7185 65.7958C67.8876 64.5527 66.7069 63.5838 65.3254 63.0117C63.944 62.4395 62.424 62.2898 60.9575 62.5814C59.491 62.873 58.1439 63.5929 57.0865 64.65C52.1654 69.5604 48.2629 75.3946 45.6029 81.8175C42.9429 88.2404 41.5779 95.1255 41.5862 102.077C41.5868 110.781 43.7339 119.35 47.8373 127.026C51.9406 134.702 57.8736 141.247 65.1107 146.083C72.3478 150.918 80.6656 153.894 89.3274 154.747C97.9893 155.599 106.728 154.303 114.769 150.972C122.81 147.641 129.906 142.379 135.427 135.651C140.949 128.923 144.726 120.937 146.424 112.4C148.123 103.864 147.689 95.0403 145.163 86.7113C142.637 78.3823 138.095 70.8048 131.941 64.65C127.465 60.1814 124.531 57.2023 121.749 53.5579C119.004 49.9588 116.275 45.5204 112.623 38.2088V38.2088ZM110.543 133.229C107.371 136.397 103.331 138.555 98.9337 139.428C94.5362 140.302 89.9784 139.853 85.8361 138.137C81.6937 136.422 78.1525 133.518 75.6598 129.791C73.167 126.065 71.8345 121.683 71.8306 117.2C71.8306 117.2 78.4768 120.98 90.7333 120.98C90.7333 113.419 94.5139 90.7358 100.185 86.9552C103.965 94.5163 106.128 96.7317 110.551 101.162C112.661 103.266 114.334 105.765 115.475 108.518C116.615 111.27 117.201 114.22 117.197 117.2C117.201 120.179 116.615 123.129 115.475 125.881C114.334 128.634 112.661 131.133 110.551 133.237L110.543 133.229Z" fill="#F73718"/>
</svg>
