<svg width="32" height="32" viewBox="0 0 32 32" fill="none" xmlns="http://www.w3.org/2000/svg">
<path fill-rule="evenodd" clip-rule="evenodd" d="M16 32C20.2435 32 24.3131 30.3143 27.3137 27.3137C30.3143 24.3131 32 20.2435 32 16C32 11.7565 30.3143 7.68687 27.3137 4.68629C24.3131 1.68571 20.2435 0 16 0C11.7565 0 7.68687 1.68571 4.68629 4.68629C1.68571 7.68687 0 11.7565 0 16C0 20.2435 1.68571 24.3131 4.68629 27.3137C7.68687 30.3143 11.7565 32 16 32ZM15.11 10.336C14.8088 10.135 14.4587 10.0196 14.097 10.0021C13.7354 9.98449 13.3757 10.0654 13.0565 10.2363C12.7372 10.4071 12.4703 10.6614 12.2843 10.972C12.0982 11.2826 11.9999 11.6379 12 12V20C11.9999 20.3621 12.0982 20.7174 12.2843 21.028C12.4703 21.3386 12.7372 21.5929 13.0565 21.7637C13.3757 21.9346 13.7354 22.0155 14.097 21.9979C14.4587 21.9804 14.8088 21.865 15.11 21.664L21.11 17.664C21.3839 17.4814 21.6085 17.2339 21.7638 16.9436C21.9192 16.6534 22.0004 16.3292 22.0004 16C22.0004 15.6708 21.9192 15.3466 21.7638 15.0564C21.6085 14.7661 21.3839 14.5186 21.11 14.336L15.11 10.336Z" fill="white"/>
</svg>
