<svg width="100" height="100" viewBox="0 0 100 100" fill="none" xmlns="http://www.w3.org/2000/svg">
<circle cx="50" cy="50" r="50" fill="black"/>
<path fill-rule="evenodd" clip-rule="evenodd" d="M59.58 20.2134C59.3265 19.7055 58.9678 19.2574 58.5277 18.8989C58.0876 18.5404 57.5763 18.2796 57.0277 18.134C56.4791 17.9883 55.9057 17.9611 55.3458 18.0541C54.7858 18.1471 54.2521 18.3582 53.78 18.6734C52.4 19.5934 51.324 20.9054 50.492 22.1934C49.636 23.5134 48.88 25.0454 48.212 26.6574C46.876 29.8734 45.756 33.7294 44.852 37.5934C43.7588 42.3153 42.9401 47.0967 42.4 51.9134C40.7725 50.8642 39.4649 49.3877 38.62 47.6454C37.308 44.9254 37.028 41.5094 37.028 37.0294C37.0279 36.2384 36.7932 35.4652 36.3536 34.8075C35.9141 34.1499 35.2894 33.6374 34.5586 33.3347C33.8278 33.032 33.0237 32.9528 32.2479 33.107C31.4721 33.2613 30.7594 33.6421 30.2 34.2014C27.5967 36.7991 25.5321 39.8855 24.1249 43.2834C22.7177 46.6813 21.9956 50.3237 22 54.0014C22.0004 58.6059 23.1362 63.1392 25.307 67.1999C27.4777 71.2605 30.6164 74.7232 34.445 77.2812C38.2736 79.8391 42.6739 81.4134 47.2563 81.8646C51.8386 82.3158 56.4615 81.63 60.7154 79.8679C64.9694 78.1058 68.7232 75.3218 71.6442 71.7625C74.5653 68.2032 76.5635 63.9784 77.4619 59.4624C78.3603 54.9465 78.1311 50.2786 76.7946 45.8723C75.4582 41.4661 73.0557 37.4574 69.8 34.2014C67.432 31.8374 65.88 30.2614 64.408 28.3334C62.956 26.4294 61.512 24.0814 59.58 20.2134V20.2134ZM58.48 70.4814C56.8018 72.1575 54.6646 73.2987 52.3382 73.7608C50.0118 74.223 47.6007 73.9854 45.4092 73.078C43.2178 72.1706 41.3445 70.6342 40.0257 68.6627C38.707 66.6913 38.0021 64.3732 38 62.0014C38 62.0014 41.516 64.0014 48 64.0014C48 60.0014 50 48.0014 53 46.0014C55 50.0014 56.144 51.1734 58.484 53.5174C59.6002 54.6301 60.4854 55.9525 61.0888 57.4085C61.6922 58.8644 62.0019 60.4253 62 62.0014C62.0019 63.5774 61.6922 65.1383 61.0888 66.5943C60.4854 68.0503 59.6002 69.3727 58.484 70.4854L58.48 70.4814Z" fill="#F73718"/>
</svg>
