<svg width="24" height="7" viewBox="0 0 25 7" fill="none" xmlns="http://www.w3.org/2000/svg">
<path d="M6.25 3.5C6.25 4.42826 5.92076 5.3185 5.33471 5.97487C4.74866 6.63125 3.9538 7 3.125 7C2.2962 7 1.50134 6.63125 0.915291 5.97487C0.32924 5.3185 0 4.42826 0 3.5C0 2.57174 0.32924 1.6815 0.915291 1.02513C1.50134 0.36875 2.2962 0 3.125 0C3.9538 0 4.74866 0.36875 5.33471 1.02513C5.92076 1.6815 6.25 2.57174 6.25 3.5ZM15.625 3.5C15.625 4.42826 15.2958 5.3185 14.7097 5.97487C14.1237 6.63125 13.3288 7 12.5 7C11.6712 7 10.8763 6.63125 10.2903 5.97487C9.70424 5.3185 9.375 4.42826 9.375 3.5C9.375 2.57174 9.70424 1.6815 10.2903 1.02513C10.8763 0.36875 11.6712 0 12.5 0C13.3288 0 14.1237 0.36875 14.7097 1.02513C15.2958 1.6815 15.625 2.57174 15.625 3.5ZM21.875 7C22.7038 7 23.4987 6.63125 24.0847 5.97487C24.6708 5.3185 25 4.42826 25 3.5C25 2.57174 24.6708 1.6815 24.0847 1.02513C23.4987 0.36875 22.7038 0 21.875 0C21.0462 0 20.2513 0.36875 19.6653 1.02513C19.0792 1.6815 18.75 2.57174 18.75 3.5C18.75 4.42826 19.0792 5.3185 19.6653 5.97487C20.2513 6.63125 21.0462 7 21.875 7Z" fill="#007B2F"/>
</svg>
